<svg id="LOGOS" xmlns="http://www.w3.org/2000/svg" viewBox="0 0 207 258"><defs><style>.cls-1{fill:#0e67ed;}.cls-2{fill:#0850c5;}</style></defs><path d="M32.62,189.75v-4.83H28.2v4.83H26v-11.6H28.2V183h4.42v-4.86h2.26v11.6Zm10.52,0H41.35l-.16-.57a4.9,4.9,0,0,1-2.59.74c-1.59,0-2.27-1-2.27-2.49,0-1.7.77-2.36,2.54-2.36H41v-.87c0-.93-.27-1.26-1.66-1.26a13.08,13.08,0,0,0-2.42.26l-.27-1.6a11.87,11.87,0,0,1,3-.39c2.74,0,3.54.93,3.54,3ZM41,186.59H39.35c-.72,0-.91.18-.91.82s.19.84.87.84a3.46,3.46,0,0,0,1.65-.43Zm6.75,3.33a10.76,10.76,0,0,1-3-.48l.3-1.6a10,10,0,0,0,2.6.36c1,0,1.11-.21,1.11-.84s-.11-.77-1.53-1.1c-2.12-.5-2.37-1-2.37-2.63s.76-2.42,3.25-2.42a11.8,11.8,0,0,1,2.61.29l-.21,1.67a16,16,0,0,0-2.4-.24c-1,0-1.11.2-1.11.72s.06.72,1.24,1c2.43.62,2.66.93,2.66,2.65S50.34,189.92,47.71,189.92Zm10-.17v-5.84c0-.45-.19-.67-.69-.67a6.31,6.31,0,0,0-2.28.7v5.81H52.55V178l2.18.32V182a8,8,0,0,1,3.19-.81c1.45,0,2,1,2,2.47v6.07Zm4-9.55v-2H63.9v2Zm0,9.55v-8.37H63.9v8.37Zm3.93-8.3c0-2.1,1.27-3.32,4.24-3.32a14,14,0,0,1,3.23.38l-.25,1.87a18.36,18.36,0,0,0-2.91-.29c-1.56,0-2.06.52-2.06,1.74v4.39c0,1.22.5,1.74,2.06,1.74a18.36,18.36,0,0,0,2.91-.29l.25,1.87a14,14,0,0,1-3.23.38c-3,0-4.24-1.22-4.24-3.32Zm12.29,8.47c-3,0-3.79-1.58-3.79-3.3v-2.11c0-1.72.81-3.3,3.79-3.3s3.8,1.58,3.8,3.3v2.11C81.74,188.34,80.93,189.92,77.94,189.92Zm0-6.92c-1.16,0-1.61.49-1.61,1.44v2.25c0,.94.45,1.44,1.61,1.44s1.61-.5,1.61-1.44v-2.25C79.55,183.49,79.11,183,77.94,183Zm9.94.13a17.6,17.6,0,0,0-2.31,1.22v5.4H83.39v-8.37h1.84l.15.93a10,10,0,0,1,2.29-1.1ZM96.61,187c0,1.86-.86,3-2.88,3a13.22,13.22,0,0,1-2.33-.24v3.42l-2.18.32v-12H91l.22.71a4.65,4.65,0,0,1,2.75-.88c1.76,0,2.69,1,2.69,2.9Zm-5.21.95a10.09,10.09,0,0,0,1.93.22c.79,0,1.09-.36,1.09-1.12v-2.95c0-.69-.26-1.06-1.07-1.06a3.19,3.19,0,0,0-1.95.75Z"/><path d="M49.28,198.17h6.77L45.77,232.56h-9.6L25.89,198.17h6.77L41,226.83Z"/><path d="M74.84,232.56H69.68l-.46-1.7a13.76,13.76,0,0,1-7.49,2.22c-4.6,0-6.56-3.15-6.56-7.49,0-5.11,2.22-7.07,7.33-7.07h6v-2.64c0-2.79-.77-3.77-4.8-3.77a34.78,34.78,0,0,0-7,.78l-.77-4.8a32.46,32.46,0,0,1,8.62-1.19c7.9,0,10.22,2.79,10.22,9.09Zm-6.3-9.5H63.9c-2.07,0-2.64.57-2.64,2.48,0,1.75.57,2.53,2.53,2.53a9.89,9.89,0,0,0,4.75-1.29Z"/><path d="M86.87,225.8a2.7,2.7,0,0,0-1.49,2c0,.67.41,1,1.39,1.09,2.79.31,4.34.46,7.28.77,4.08.46,5.37,2.48,5.37,6.09,0,5.37-2,7.49-11.36,7.49A36.55,36.55,0,0,1,78.35,242l.78-4.7a34.9,34.9,0,0,0,8.47,1.08c5,0,6-.36,6-2s-.47-1.81-2.38-2c-2.89-.31-4.08-.47-7.28-.83-3.56-.41-5-1.6-5-4.8a5.34,5.34,0,0,1,2.64-4.29c-2.33-1.39-3.41-3.72-3.41-6.76v-2.38c.1-5.21,2.84-8.36,10.12-8.36a17.16,17.16,0,0,1,4.29.51h7.74v3.15c-.88.26-1.91.52-2.79.78a8.58,8.58,0,0,1,.88,3.92v2.38c0,5.11-3.1,8.21-10.12,8.21A13.57,13.57,0,0,1,86.87,225.8ZM88.32,212c-3.1,0-4.18,1.13-4.18,3.51v1.91c0,2.48,1.24,3.41,4.18,3.41s4.23-1,4.23-3.41v-1.91C92.55,213.09,91.47,212,88.32,212Z"/><path d="M116.15,212.68a49.18,49.18,0,0,0-6.66,3.67v16.21h-6.3V207.41h5.32l.41,2.79a28.29,28.29,0,0,1,6.61-3.3Z"/><path d="M137.22,232.56h-5.17l-.46-1.7a13.73,13.73,0,0,1-7.49,2.22c-4.59,0-6.56-3.15-6.56-7.49,0-5.11,2.22-7.07,7.34-7.07h6v-2.64c0-2.79-.78-3.77-4.8-3.77a34.7,34.7,0,0,0-7,.78l-.78-4.8A32.57,32.57,0,0,1,127,206.9c7.9,0,10.23,2.79,10.23,9.09Zm-6.3-9.5h-4.65c-2.06,0-2.63.57-2.63,2.48,0,1.75.57,2.53,2.53,2.53a9.93,9.93,0,0,0,4.75-1.29Z"/><path d="M156,232.56V215c0-1.34-.57-2-2-2a17.34,17.34,0,0,0-6.56,2.12v17.45h-6.3V207.41h4.8l.62,2.12a25.19,25.19,0,0,1,10.07-2.63c4.18,0,5.68,2.94,5.68,7.43v18.23Z"/><path d="M180.8,232.1a17.49,17.49,0,0,1-5.53,1c-4.59,0-6.92-2.17-6.92-6.66v-14h-3.77v-5h3.77v-6.24l6.3-.88v7.12h6.46l-.42,5h-6v13.17a2,2,0,0,0,2.27,2.22,12.1,12.1,0,0,0,3.15-.52Z"/><polygon class="cls-1" points="149.08 19.7 120.75 36.05 120.75 46.1 103.49 86.69 86.24 46.1 86.24 36.05 57.91 19.7 40.67 29.65 40.67 41.22 40.67 41.22 79.05 135.19 103.49 149.31 103.49 149.31 127.94 135.19 166.31 41.22 166.31 41.22 166.31 29.65 149.08 19.7"/><polygon class="cls-2" points="166.31 29.65 137.99 46.01 137.99 56.05 114.98 107.47 103.49 114.1 103.49 149.31 127.94 135.19 166.31 41.22 166.31 41.22 166.31 29.65"/><polygon class="cls-2" points="86.24 46.1 86.24 36.05 69 46.01 69 56.05 92.01 107.47 103.49 100.83 103.49 86.69 86.24 46.1"/></svg>