<svg width="40" height="40" viewBox="0 0 40 40" fill="none" xmlns="http://www.w3.org/2000/svg">
    <path fill-rule="evenodd" clip-rule="evenodd"
        d="M36.25 20C36.25 22.0047 35.8612 23.9539 35.182 25.749C35.0573 26.0786 34.6364 26.1614 34.3857 25.9137L29.3994 20.9875C29.1913 20.7819 29.1565 20.461 29.2921 20.2019C29.8329 19.1684 30.1033 17.9862 30.1033 16.75C30.1739 12.7228 26.8533 9.40217 22.7554 9.40217C21.4544 9.40217 20.2621 9.72812 19.226 10.2848C18.9709 10.4218 18.6535 10.3891 18.4474 10.1857L14.0087 5.8046C13.6959 5.49586 13.7916 4.96986 14.2018 4.81232C16.0067 4.1193 17.9242 3.75 20 3.75C28.9728 3.75 36.25 11.0272 36.25 20ZM10.5944 6.77577C10.8841 6.57163 11.2771 6.61407 11.5277 6.86466L16.5718 11.9088C16.7947 12.1317 16.8142 12.4841 16.6393 12.7463C15.8509 13.9282 15.4076 15.319 15.4076 16.8207C15.4076 20.9185 18.7283 24.2391 22.8261 24.2391C24.3277 24.2391 25.7185 23.7959 26.9004 23.0075C27.1626 22.8325 27.5151 22.852 27.738 23.0749L33.1978 28.5348C33.4521 28.789 33.4915 29.1892 33.2791 29.4793C30.2809 33.5752 25.4993 36.25 20 36.25C11.0272 36.25 3.75 28.9728 3.75 20C3.75 14.4959 6.42958 9.71064 10.5944 6.77577ZM22.8261 21.413C25.5815 21.413 27.7717 19.2228 27.7717 16.4674C27.7717 13.712 25.5815 11.5217 22.8261 11.5217C20.0707 11.5217 17.8804 13.712 17.8804 16.4674C17.8804 19.2228 20.0707 21.413 22.8261 21.413Z"
        fill="url(#paint0_linear)" />
    <defs>
        <linearGradient id="paint0_linear" x1="-6.74779" y1="14.2478" x2="14.2478" y2="46.7478"
            gradientUnits="userSpaceOnUse">
            <stop stop-color="#73DFE7" />
            <stop offset="1" stop-color="#0095F7" />
        </linearGradient>
    </defs>
</svg>