<svg width="41" height="40" viewBox="0 0 41 40" fill="none" xmlns="http://www.w3.org/2000/svg">
<path fill-rule="evenodd" clip-rule="evenodd" d="M7.03938 10.7869L7.36433 30.5784C7.3795 31.4062 7.94045 32.112 8.77053 32.3478L30.2379 37.4167C31.612 37.807 33.0491 36.7734 33.039 35.4022L32.8107 4.37305C32.8009 3.04847 31.4398 2.16944 30.094 2.61859L8.52996 8.78728C7.63146 9.08714 7.02319 9.90312 7.03938 10.7869ZM11.5054 17.9018C11.5054 17.4477 11.8702 17.0795 12.3202 17.0795H14.2005V13.9361C14.2005 13.0975 14.7587 12.3638 15.5608 12.1479L21.6903 10.4984V8.90819C21.6903 8.45406 22.0551 8.08592 22.5051 8.08592H27.5975C28.0475 8.08592 28.4123 8.45406 28.4123 8.90819V14.0474C28.4123 14.5015 28.0475 14.8697 27.5975 14.8697H22.5051C22.0551 14.8697 21.6903 14.5015 21.6903 14.0474V12.4135L16.0323 13.9361V17.0795H17.4127C17.8626 17.0795 18.2274 17.4477 18.2274 17.9018V23.041C18.2274 23.4951 17.8626 23.8633 17.4127 23.8633H16.0323V26.9038L21.6903 28.4264V26.8954C21.6903 26.4413 22.0551 26.0731 22.5051 26.0731H27.5975C28.0475 26.0731 28.4123 26.4413 28.4123 26.8954V32.0346C28.4123 32.4887 28.0475 32.8569 27.5975 32.8569H22.5051C22.0551 32.8569 21.6903 32.4887 21.6903 32.0346V30.3415L15.5608 28.692C14.7587 28.4761 14.2005 27.7424 14.2005 26.9038V23.8633H12.3202C11.8702 23.8633 11.5054 23.4951 11.5054 23.041V17.9018ZM13.135 18.7241V22.2187H16.5979V18.7241H13.135ZM23.3199 13.2251V9.73046H26.7828V13.2251H23.3199ZM21.6903 17.9018C21.6903 17.4477 22.0551 17.0795 22.5051 17.0795H27.5975C28.0475 17.0795 28.4123 17.4477 28.4123 17.9018V23.041C28.4123 23.4951 28.0475 23.8633 27.5975 23.8633H22.5051C22.0551 23.8633 21.6903 23.4951 21.6903 23.041V17.9018ZM23.3199 18.7241V22.2187H26.7828V18.7241H23.3199ZM23.3199 31.2123V27.7177H26.7828V31.2123H23.3199Z" fill="url(#paint0_linear_1069_17122)"/>
<defs>
<linearGradient id="paint0_linear_1069_17122" x1="13.5391" y1="4.84456" x2="33.121" y2="30.04" gradientUnits="userSpaceOnUse">
<stop stop-color="#62F91F"/>
<stop offset="1" stop-color="#45BD35"/>
</linearGradient>
</defs>
</svg>
