<svg id="LOGOS" xmlns="http://www.w3.org/2000/svg" viewBox="0 0 198 258"><defs><style>.cls-1{fill:#00ca8e;}</style></defs><path d="M33.43,206.55v26.08H27.08V198.24h8.67l13.06,26.12V198.24h6.36v34.39H46.49Z"/><path d="M70.65,233.14c-8.62,0-10.94-4.75-10.94-9.91v-6.35c0-5.17,2.32-9.92,10.94-9.92s10.95,4.75,10.95,9.92v6.35C81.6,228.39,79.28,233.14,70.65,233.14Zm0-20.81c-3.35,0-4.64,1.5-4.64,4.34v6.76c0,2.85,1.29,4.34,4.64,4.34s4.65-1.49,4.65-4.34v-6.76C75.3,213.83,74,212.33,70.65,212.33Z"/><path d="M100.76,232.63V215.07c0-1.34-.57-2-2-2a17.53,17.53,0,0,0-6.56,2.11v17.46h-6.3V207.48h4.81l.62,2.12A25.17,25.17,0,0,1,101.38,207a4.78,4.78,0,0,1,4.75,2.69A24.62,24.62,0,0,1,116.25,207c4.18,0,5.68,2.95,5.68,7.44v18.23h-6.3V215.07c0-1.34-.57-2-2-2a16.69,16.69,0,0,0-6.55,2.11v17.46Z"/><path d="M145.73,232.63h-5.17l-.46-1.71a13.73,13.73,0,0,1-7.49,2.22c-4.59,0-6.56-3.15-6.56-7.48,0-5.12,2.23-7.08,7.34-7.08h6V216c0-2.79-.78-3.77-4.8-3.77a35.43,35.43,0,0,0-7,.77l-.78-4.8A33,33,0,0,1,135.5,207c7.9,0,10.23,2.79,10.23,9.09Zm-6.3-9.5h-4.65c-2.06,0-2.63.56-2.63,2.47s.57,2.53,2.53,2.53a9.93,9.93,0,0,0,4.75-1.29Z"/><path d="M149.6,215.84c0-5.57,2.48-8.88,8.31-8.88a34.33,34.33,0,0,1,6.72.73V197.2l6.29-.87v36.3h-5l-.62-2.12a13.26,13.26,0,0,1-8,2.63c-5.06,0-7.74-3-7.74-8.72Zm15-2.84a28.12,28.12,0,0,0-5.58-.67c-2.27,0-3.15,1.09-3.15,3.36v8.88c0,2.07.77,3.2,3.1,3.2a8.94,8.94,0,0,0,5.63-2.27Z"/><path d="M33.81,189.81V185H29.4v4.83H27.14v-11.6H29.4v4.86h4.41v-4.86h2.26v11.6Zm10.52,0H42.54l-.16-.57a4.85,4.85,0,0,1-2.59.74c-1.59,0-2.27-1-2.27-2.49,0-1.7.77-2.35,2.54-2.35h2.09v-.88c0-.93-.27-1.25-1.66-1.25a13.07,13.07,0,0,0-2.42.25l-.27-1.59a11.87,11.87,0,0,1,3-.4c2.74,0,3.54.93,3.54,3Zm-2.18-3.16H40.54c-.72,0-.91.19-.91.82s.19.84.87.84a3.46,3.46,0,0,0,1.65-.43ZM48.9,190a10.76,10.76,0,0,1-3-.48l.3-1.6a10,10,0,0,0,2.6.36c1,0,1.11-.2,1.11-.84s-.11-.77-1.52-1.1c-2.13-.5-2.38-1-2.38-2.63s.77-2.42,3.25-2.42a11.8,11.8,0,0,1,2.61.29l-.21,1.67a16,16,0,0,0-2.4-.24c-.95,0-1.11.2-1.11.72s.06.72,1.24,1c2.43.62,2.66.93,2.66,2.65S51.53,190,48.9,190Zm10-.17V184c0-.45-.19-.67-.69-.67a6.21,6.21,0,0,0-2.27.7v5.81H53.74V178.05l2.19.32v3.71a7.92,7.92,0,0,1,3.18-.81c1.45,0,2,1,2,2.47v6.07Zm4-9.55v-2h2.18v2Zm0,9.55v-8.37h2.18v8.37Zm3.93-8.3c0-2.09,1.27-3.31,4.24-3.31a14,14,0,0,1,3.23.37l-.25,1.88a17.32,17.32,0,0,0-2.91-.3c-1.56,0-2.06.52-2.06,1.74v4.4c0,1.22.5,1.73,2.06,1.73a18.36,18.36,0,0,0,2.91-.29l.25,1.87a14,14,0,0,1-3.23.38c-3,0-4.24-1.22-4.24-3.32ZM79.14,190c-3,0-3.8-1.58-3.8-3.3v-2.11c0-1.72.81-3.3,3.8-3.3s3.79,1.58,3.79,3.3v2.11C82.93,188.4,82.12,190,79.14,190Zm0-6.92c-1.17,0-1.61.5-1.61,1.44v2.25c0,.94.44,1.44,1.61,1.44s1.61-.5,1.61-1.44V184.5C80.75,183.56,80.3,183.06,79.14,183.06Zm9.93.13a18.06,18.06,0,0,0-2.3,1.22v5.4H84.58v-8.37h1.85l.14.93a10,10,0,0,1,2.29-1.1ZM97.8,187c0,1.86-.86,3-2.88,3a12.34,12.34,0,0,1-2.33-.24v3.42l-2.18.32v-12h1.73l.22.71a4.65,4.65,0,0,1,2.75-.88c1.76,0,2.69,1,2.69,2.9Zm-5.21.95a10.09,10.09,0,0,0,1.93.22c.79,0,1.09-.36,1.09-1.11v-3c0-.68-.26-1.06-1.07-1.06a3.19,3.19,0,0,0-2,.75Z"/><path class="cls-1" d="M98.51,20.16,39.86,54v67.73l58.65,33.86,58.65-33.86V54Zm26.13,74.48-15.63,9L90.13,93.39V115L72.38,126.23V81.11l14.08-8.62L106,82.79v-22l18.65-11.2Z"/></svg>