<?xml version="1.0" encoding="utf-8"?>
<!-- Generator: Adobe Illustrator 16.0.0, SVG Export Plug-In . SVG Version: 6.00 Build 0)  -->
<!DOCTYPE svg PUBLIC "-//W3C//DTD SVG 1.1//EN" "http://www.w3.org/Graphics/SVG/1.1/DTD/svg11.dtd">
<svg version="1.1" id="Layer_1" xmlns="http://www.w3.org/2000/svg" xmlns:xlink="http://www.w3.org/1999/xlink" x="0px" y="0px"
	 width="1344px" height="960px" viewBox="0 0 1344 960" enable-background="new 0 0 1344 960" xml:space="preserve">
<path fill="#ED1C24" d="M477.412,320c0-88-72-160-160-160s-160,72-160,160s72,160,160,160c36,0,69-12,96-32l-1,178
	c-30,9-62,14-95,14c-177,0-320-143-320-320s143-320,320-320s320,143,320,320v640h-160V320z"/>
<path fill="#00A651" d="M864,640c0,88,72,160,160,160s160-72,160-160s-72-160-160-160c-36,0-69,12-96,32l1-178c30-9,62-14,95-14
	c177,0,320,143,320,320s-143,320-320,320S704,817,704,640V0h160V640z"/>
</svg>
