<svg xmlns="http://www.w3.org/2000/svg" xmlns:xlink="http://www.w3.org/1999/xlink" viewBox="0 0 480 480"><path d="M439.8 212.8v-.4c0-.2 0-.2-.2-.4 0 0 0-.2-.2-.2 0-.2-.2-.2-.2-.4l-.2-.2-.4-.4-.2-.2-65.4-36.3c-.8-.4-2.1-.4-2.9 0L314.8 208l-.2.2-.2.2-.2.2-.2.2c0 .2-.2.2-.2.4 0 0 0 .2-.2.2V210l-.6 29.4-22.4-14.9c-.8-.6-2.1-.6-3.1 0L255 244.3l-1.5-32.9v-.2-.4s0-.2-.2-.2c0-.2 0-.2-.2-.4l-.2-.2-.2-.2-.2-.2-.2-.2-33.6-22.7 31.5-16.4c1-.4 1.7-1.5 1.5-2.7l-5.2-123.7V43.3c0-.2-.2-.4-.2-.6v-.2c-.2-.2-.2-.4-.4-.4 0 0-.2 0-.2-.2l-.2-.2s-.2 0-.2-.2L160.2.3c-.6-.4-1.5-.4-2.1-.2L42.3 36.2h-.2c-.2 0-.4.2-.6.2-.2 0-.2.2-.2.2l-.4.4c0 .2-.2.2-.2.4s-.2.2-.2.4 0 .2-.2.4v1L66 164.1c.2.6.4 1.3 1 1.7l35 27.3-25.6 12.6h-.2-.2l-.2.2c-.2 0-.2.2-.4.4l-.2.2c-.2.2-.2.4-.2.4v.2c0 .2-.2.4-.2.8v.8l19.5 94c.2.6.4 1 .8 1.5l24.3 23.1-16.1 9.9c-.2.2-.4.2-.6.4l-.2.2c-.2.2-.2.4-.4.6v.2c-.2.2-.2.4-.2.8v.8L117 413c.2.4.4 1 .6 1.5l60.8 64.6.2.2h.2c.2.2.4.2.6.4.4.2.6.2 1 .2.2 0 .6 0 .8-.2h.4c.2 0 .2-.2.2-.2s.2 0 .2-.2l78.2-62.5c.6-.6 1-1.5 1-2.3l-1.9-42.8 26.2 22h.2c.2.2.2.2.4.2h.4c.2 0 .6.2.8.2s.6 0 .8-.2h.4c.2 0 .2-.2.4-.2h.2l62.7-50.1c.6-.4 1-1.3 1-2.1l1.9-31.5 19.1 13.2h.2l.2.2c.2 0 .2 0 .4.2h.2c.2 0 .4.2.8.2.2 0 .6 0 .8-.2h.4c.2 0 .2-.2.4-.2h.2l51.2-40.9c.6-.4 1-1 1-1.9l9-67.3v-.2c1.2-.1 1.2-.1 1.2-.3z"></path><defs><path id="a" d="M439.8 212.8v-.4c0-.2 0-.2-.2-.4 0 0 0-.2-.2-.2 0-.2-.2-.2-.2-.4l-.2-.2-.4-.4-.2-.2-65.4-36.3c-.8-.4-2.1-.4-2.9 0L314.8 208l-.2.2-.2.2-.2.2-.2.2c0 .2-.2.2-.2.4 0 0 0 .2-.2.2V210l-.6 29.4-22.4-14.9c-.8-.6-2.1-.6-3.1 0L255 244.3l-1.5-32.9v-.2-.4s0-.2-.2-.2c0-.2 0-.2-.2-.4l-.2-.2-.2-.2-.2-.2-.2-.2-33.6-22.7 31.5-16.4c1-.4 1.7-1.5 1.5-2.7l-5.2-123.7V43.3c0-.2-.2-.4-.2-.6v-.2c-.2-.2-.2-.4-.4-.4 0 0-.2 0-.2-.2l-.2-.2s-.2 0-.2-.2L160.2.3c-.6-.4-1.5-.4-2.1-.2L42.3 36.2h-.2c-.2 0-.4.2-.6.2-.2 0-.2.2-.2.2l-.4.4c0 .2-.2.2-.2.4s-.2.2-.2.4 0 .2-.2.4v1L66 164.1c.2.6.4 1.3 1 1.7l35 27.3-25.6 12.6h-.2-.2l-.2.2c-.2 0-.2.2-.4.4l-.2.2c-.2.2-.2.4-.2.4v.2c0 .2-.2.4-.2.8v.8l19.5 94c.2.6.4 1 .8 1.5l24.3 23.1-16.1 9.9c-.2.2-.4.2-.6.4l-.2.2c-.2.2-.2.4-.4.6v.2c-.2.2-.2.4-.2.8v.8L117 413c.2.4.4 1 .6 1.5l60.8 64.6.2.2h.2c.2.2.4.2.6.4.4.2.6.2 1 .2.2 0 .6 0 .8-.2h.4c.2 0 .2-.2.2-.2s.2 0 .2-.2l78.2-62.5c.6-.6 1-1.5 1-2.3l-1.9-42.8 26.2 22h.2c.2.2.2.2.4.2h.4c.2 0 .6.2.8.2s.6 0 .8-.2h.4c.2 0 .2-.2.4-.2h.2l62.7-50.1c.6-.4 1-1.3 1-2.1l1.9-31.5 19.1 13.2h.2l.2.2c.2 0 .2 0 .4.2h.2c.2 0 .4.2.8.2.2 0 .6 0 .8-.2h.4c.2 0 .2-.2.4-.2h.2l51.2-40.9c.6-.4 1-1 1-1.9l9-67.3v-.2c1.2-.1 1.2-.1 1.2-.3z"></path></defs><clipPath id="b"><use xlink:href="#a" overflow="visible"></use></clipPath><path d="M440.2 211.1l-9.6 70.7-54.1 43 5.9-69.2 57.8-44.5z" clip-path="url(#b)" fill="#00a75d"></path><defs><path id="c" d="M439.8 212.8v-.4c0-.2 0-.2-.2-.4 0 0 0-.2-.2-.2 0-.2-.2-.2-.2-.4l-.2-.2-.4-.4-.2-.2-65.4-36.3c-.8-.4-2.1-.4-2.9 0L314.8 208l-.2.2-.2.2-.2.2-.2.2c0 .2-.2.2-.2.4 0 0 0 .2-.2.2V210l-.6 29.4-22.4-14.9c-.8-.6-2.1-.6-3.1 0L255 244.3l-1.5-32.9v-.2-.4s0-.2-.2-.2c0-.2 0-.2-.2-.4l-.2-.2-.2-.2-.2-.2-.2-.2-33.6-22.7 31.5-16.4c1-.4 1.7-1.5 1.5-2.7l-5.2-123.7V43.3c0-.2-.2-.4-.2-.6v-.2c-.2-.2-.2-.4-.4-.4 0 0-.2 0-.2-.2l-.2-.2s-.2 0-.2-.2L160.2.3c-.6-.4-1.5-.4-2.1-.2L42.3 36.2h-.2c-.2 0-.4.2-.6.2-.2 0-.2.2-.2.2l-.4.4c0 .2-.2.2-.2.4s-.2.2-.2.4 0 .2-.2.4v1L66 164.1c.2.6.4 1.3 1 1.7l35 27.3-25.6 12.6h-.2-.2l-.2.2c-.2 0-.2.2-.4.4l-.2.2c-.2.2-.2.4-.2.4v.2c0 .2-.2.4-.2.8v.8l19.5 94c.2.6.4 1 .8 1.5l24.3 23.1-16.1 9.9c-.2.2-.4.2-.6.4l-.2.2c-.2.2-.2.4-.4.6v.2c-.2.2-.2.4-.2.8v.8L117 413c.2.4.4 1 .6 1.5l60.8 64.6.2.2h.2c.2.2.4.2.6.4.4.2.6.2 1 .2.2 0 .6 0 .8-.2h.4c.2 0 .2-.2.2-.2s.2 0 .2-.2l78.2-62.5c.6-.6 1-1.5 1-2.3l-1.9-42.8 26.2 22h.2c.2.2.2.2.4.2h.4c.2 0 .6.2.8.2s.6 0 .8-.2h.4c.2 0 .2-.2.4-.2h.2l62.7-50.1c.6-.4 1-1.3 1-2.1l1.9-31.5 19.1 13.2h.2l.2.2c.2 0 .2 0 .4.2h.2c.2 0 .4.2.8.2.2 0 .6 0 .8-.2h.4c.2 0 .2-.2.4-.2h.2l51.2-40.9c.6-.4 1-1 1-1.9l9-67.3v-.2c1.2-.1 1.2-.1 1.2-.3z"></path></defs><clipPath id="d"><use xlink:href="#c" overflow="visible"></use></clipPath><path d="M288.6 322.5l-.2 72.8 65.9-52.4 4-71.3-69.7 50.9z" clip-path="url(#d)" fill="#00a75d"></path><g><defs><path id="e" d="M439.8 212.8v-.4c0-.2 0-.2-.2-.4 0 0 0-.2-.2-.2 0-.2-.2-.2-.2-.4l-.2-.2-.4-.4-.2-.2-65.4-36.3c-.8-.4-2.1-.4-2.9 0L314.8 208l-.2.2-.2.2-.2.2-.2.2c0 .2-.2.2-.2.4 0 0 0 .2-.2.2V210l-.6 29.4-22.4-14.9c-.8-.6-2.1-.6-3.1 0L255 244.3l-1.5-32.9v-.2-.4s0-.2-.2-.2c0-.2 0-.2-.2-.4l-.2-.2-.2-.2-.2-.2-.2-.2-33.6-22.7 31.5-16.4c1-.4 1.7-1.5 1.5-2.7l-5.2-123.7V43.3c0-.2-.2-.4-.2-.6v-.2c-.2-.2-.2-.4-.4-.4 0 0-.2 0-.2-.2l-.2-.2s-.2 0-.2-.2L160.2.3c-.6-.4-1.5-.4-2.1-.2L42.3 36.2h-.2c-.2 0-.4.2-.6.2-.2 0-.2.2-.2.2l-.4.4c0 .2-.2.2-.2.4s-.2.2-.2.4 0 .2-.2.4v1L66 164.1c.2.6.4 1.3 1 1.7l35 27.3-25.6 12.6h-.2-.2l-.2.2c-.2 0-.2.2-.4.4l-.2.2c-.2.2-.2.4-.2.4v.2c0 .2-.2.4-.2.8v.8l19.5 94c.2.6.4 1 .8 1.5l24.3 23.1-16.1 9.9c-.2.2-.4.2-.6.4l-.2.2c-.2.2-.2.4-.4.6v.2c-.2.2-.2.4-.2.8v.8L117 413c.2.4.4 1 .6 1.5l60.8 64.6.2.2h.2c.2.2.4.2.6.4.4.2.6.2 1 .2.2 0 .6 0 .8-.2h.4c.2 0 .2-.2.2-.2s.2 0 .2-.2l78.2-62.5c.6-.6 1-1.5 1-2.3l-1.9-42.8 26.2 22h.2c.2.2.2.2.4.2h.4c.2 0 .6.2.8.2s.6 0 .8-.2h.4c.2 0 .2-.2.4-.2h.2l62.7-50.1c.6-.4 1-1.3 1-2.1l1.9-31.5 19.1 13.2h.2l.2.2c.2 0 .2 0 .4.2h.2c.2 0 .4.2.8.2.2 0 .6 0 .8-.2h.4c.2 0 .2-.2.4-.2h.2l51.2-40.9c.6-.4 1-1 1-1.9l9-67.3v-.2c1.2-.1 1.2-.1 1.2-.3z"></path></defs><clipPath id="f"><use xlink:href="#e" overflow="visible"></use></clipPath><path d="M259 342.2l-87.7 64.4 9.6 74.7 81.4-64.8-3.3-74.3z" clip-path="url(#f)" fill="#00a75d"></path></g><g><defs><path id="g" d="M439.8 212.8v-.4c0-.2 0-.2-.2-.4 0 0 0-.2-.2-.2 0-.2-.2-.2-.2-.4l-.2-.2-.4-.4-.2-.2-65.4-36.3c-.8-.4-2.1-.4-2.9 0L314.8 208l-.2.2-.2.2-.2.2-.2.2c0 .2-.2.2-.2.4 0 0 0 .2-.2.2V210l-.6 29.4-22.4-14.9c-.8-.6-2.1-.6-3.1 0L255 244.3l-1.5-32.9v-.2-.4s0-.2-.2-.2c0-.2 0-.2-.2-.4l-.2-.2-.2-.2-.2-.2-.2-.2-33.6-22.7 31.5-16.4c1-.4 1.7-1.5 1.5-2.7l-5.2-123.7V43.3c0-.2-.2-.4-.2-.6v-.2c-.2-.2-.2-.4-.4-.4 0 0-.2 0-.2-.2l-.2-.2s-.2 0-.2-.2L160.2.3c-.6-.4-1.5-.4-2.1-.2L42.3 36.2h-.2c-.2 0-.4.2-.6.2-.2 0-.2.2-.2.2l-.4.4c0 .2-.2.2-.2.4s-.2.2-.2.4 0 .2-.2.4v1L66 164.1c.2.6.4 1.3 1 1.7l35 27.3-25.6 12.6h-.2-.2l-.2.2c-.2 0-.2.2-.4.4l-.2.2c-.2.2-.2.4-.2.4v.2c0 .2-.2.4-.2.8v.8l19.5 94c.2.6.4 1 .8 1.5l24.3 23.1-16.1 9.9c-.2.2-.4.2-.6.4l-.2.2c-.2.2-.2.4-.4.6v.2c-.2.2-.2.4-.2.8v.8L117 413c.2.4.4 1 .6 1.5l60.8 64.6.2.2h.2c.2.2.4.2.6.4.4.2.6.2 1 .2.2 0 .6 0 .8-.2h.4c.2 0 .2-.2.2-.2s.2 0 .2-.2l78.2-62.5c.6-.6 1-1.5 1-2.3l-1.9-42.8 26.2 22h.2c.2.2.2.2.4.2h.4c.2 0 .6.2.8.2s.6 0 .8-.2h.4c.2 0 .2-.2.4-.2h.2l62.7-50.1c.6-.4 1-1.3 1-2.1l1.9-31.5 19.1 13.2h.2l.2.2c.2 0 .2 0 .4.2h.2c.2 0 .4.2.8.2.2 0 .6 0 .8-.2h.4c.2 0 .2-.2.4-.2h.2l51.2-40.9c.6-.4 1-1 1-1.9l9-67.3v-.2c1.2-.1 1.2-.1 1.2-.3z"></path></defs><clipPath id="h"><use xlink:href="#g" overflow="visible"></use></clipPath><path d="M257.5 306.6l-3.8-96.9-102.1 61.9 14.1 97.1 91.8-62.1z" clip-path="url(#h)" fill="#00a75d"></path></g><g><defs><path id="i" d="M439.8 212.8v-.4c0-.2 0-.2-.2-.4 0 0 0-.2-.2-.2 0-.2-.2-.2-.2-.4l-.2-.2-.4-.4-.2-.2-65.4-36.3c-.8-.4-2.1-.4-2.9 0L314.8 208l-.2.2-.2.2-.2.2-.2.2c0 .2-.2.2-.2.4 0 0 0 .2-.2.2V210l-.6 29.4-22.4-14.9c-.8-.6-2.1-.6-3.1 0L255 244.3l-1.5-32.9v-.2-.4s0-.2-.2-.2c0-.2 0-.2-.2-.4l-.2-.2-.2-.2-.2-.2-.2-.2-33.6-22.7 31.5-16.4c1-.4 1.7-1.5 1.5-2.7l-5.2-123.7V43.3c0-.2-.2-.4-.2-.6v-.2c-.2-.2-.2-.4-.4-.4 0 0-.2 0-.2-.2l-.2-.2s-.2 0-.2-.2L160.2.3c-.6-.4-1.5-.4-2.1-.2L42.3 36.2h-.2c-.2 0-.4.2-.6.2-.2 0-.2.2-.2.2l-.4.4c0 .2-.2.2-.2.4s-.2.2-.2.4 0 .2-.2.4v1L66 164.1c.2.6.4 1.3 1 1.7l35 27.3-25.6 12.6h-.2-.2l-.2.2c-.2 0-.2.2-.4.4l-.2.2c-.2.2-.2.4-.2.4v.2c0 .2-.2.4-.2.8v.8l19.5 94c.2.6.4 1 .8 1.5l24.3 23.1-16.1 9.9c-.2.2-.4.2-.6.4l-.2.2c-.2.2-.2.4-.4.6v.2c-.2.2-.2.4-.2.8v.8L117 413c.2.4.4 1 .6 1.5l60.8 64.6.2.2h.2c.2.2.4.2.6.4.4.2.6.2 1 .2.2 0 .6 0 .8-.2h.4c.2 0 .2-.2.2-.2s.2 0 .2-.2l78.2-62.5c.6-.6 1-1.5 1-2.3l-1.9-42.8 26.2 22h.2c.2.2.2.2.4.2h.4c.2 0 .6.2.8.2s.6 0 .8-.2h.4c.2 0 .2-.2.4-.2h.2l62.7-50.1c.6-.4 1-1.3 1-2.1l1.9-31.5 19.1 13.2h.2l.2.2c.2 0 .2 0 .4.2h.2c.2 0 .4.2.8.2.2 0 .6 0 .8-.2h.4c.2 0 .2-.2.4-.2h.2l51.2-40.9c.6-.4 1-1 1-1.9l9-67.3v-.2c1.2-.1 1.2-.1 1.2-.3z"></path></defs><clipPath id="j"><use xlink:href="#i" overflow="visible"></use></clipPath><path d="M246.2 43.6l-120.8 49 19.9 134.9 73.8-40.9.2.8 33.3-16.8v-2.7l-6.4-124.3z" clip-path="url(#j)" fill="#00a75d"></path></g><g><defs><path id="k" d="M439.8 212.8v-.4c0-.2 0-.2-.2-.4 0 0 0-.2-.2-.2 0-.2-.2-.2-.2-.4l-.2-.2-.4-.4-.2-.2-65.4-36.3c-.8-.4-2.1-.4-2.9 0L314.8 208l-.2.2-.2.2-.2.2-.2.2c0 .2-.2.2-.2.4 0 0 0 .2-.2.2V210l-.6 29.4-22.4-14.9c-.8-.6-2.1-.6-3.1 0L255 244.3l-1.5-32.9v-.2-.4s0-.2-.2-.2c0-.2 0-.2-.2-.4l-.2-.2-.2-.2-.2-.2-.2-.2-33.6-22.7 31.5-16.4c1-.4 1.7-1.5 1.5-2.7l-5.2-123.7V43.3c0-.2-.2-.4-.2-.6v-.2c-.2-.2-.2-.4-.4-.4 0 0-.2 0-.2-.2l-.2-.2s-.2 0-.2-.2L160.2.3c-.6-.4-1.5-.4-2.1-.2L42.3 36.2h-.2c-.2 0-.4.2-.6.2-.2 0-.2.2-.2.2l-.4.4c0 .2-.2.2-.2.4s-.2.2-.2.4 0 .2-.2.4v1L66 164.1c.2.6.4 1.3 1 1.7l35 27.3-25.6 12.6h-.2-.2l-.2.2c-.2 0-.2.2-.4.4l-.2.2c-.2.2-.2.4-.2.4v.2c0 .2-.2.4-.2.8v.8l19.5 94c.2.6.4 1 .8 1.5l24.3 23.1-16.1 9.9c-.2.2-.4.2-.6.4l-.2.2c-.2.2-.2.4-.4.6v.2c-.2.2-.2.4-.2.8v.8L117 413c.2.4.4 1 .6 1.5l60.8 64.6.2.2h.2c.2.2.4.2.6.4.4.2.6.2 1 .2.2 0 .6 0 .8-.2h.4c.2 0 .2-.2.2-.2s.2 0 .2-.2l78.2-62.5c.6-.6 1-1.5 1-2.3l-1.9-42.8 26.2 22h.2c.2.2.2.2.4.2h.4c.2 0 .6.2.8.2s.6 0 .8-.2h.4c.2 0 .2-.2.4-.2h.2l62.7-50.1c.6-.4 1-1.3 1-2.1l1.9-31.5 19.1 13.2h.2l.2.2c.2 0 .2 0 .4.2h.2c.2 0 .4.2.8.2.2 0 .6 0 .8-.2h.4c.2 0 .2-.2.4-.2h.2l51.2-40.9c.6-.4 1-1 1-1.9l9-67.3v-.2c1.2-.1 1.2-.1 1.2-.3z"></path></defs><clipPath id="l"><use xlink:href="#k" overflow="visible"></use></clipPath><path d="M382.3 255.6l-5.9 69-20.6-14.5 2.3-38.6v-.2V270.7c0-.2-.2-.4-.2-.6-.2-.2-.2-.4-.4-.6h-.2c-.2-.2-.2-.2-.4-.2l-44.3-29.2.6-29.8 69.1 45.3zm-93.7 66.9l-31.2-22.4.2 4.8c0 1-.4 1.9-1.3 2.5l-20.8 14.1 22.7 18.5.2.2.4.4s0 .2.2.2c0 .2.2.2.2.4v.8l1.3 29.4 28.1 23.5v-72.4zm-187.5 15.7l15.7 74.9 64.4 68.6-9.9-75.1-70.2-68.4zm64.6 30.4l-14.1-97.1L75 208.8 93.9 304l71.8 64.6zm-20.4-141.1L125.4 92.6 38.8 37.9l26.8 127.5 79.7 62.1z" clip-path="url(#l)" fill="#536657"></path></g></svg>